<svg width="214" height="84" viewBox="0 0 214 84" fill="none" xmlns="http://www.w3.org/2000/svg">
<path d="M1.79688 6.72266H6.24023C8.14128 6.72266 9.58008 6.98958 10.5566 7.52344C11.5332 8.05729 12.0215 8.99479 12.0215 10.3359C12.0215 10.8763 11.9336 11.3646 11.7578 11.8008C11.5885 12.237 11.3411 12.5951 11.0156 12.875C10.6901 13.1549 10.293 13.3372 9.82422 13.4219V13.5195C10.2995 13.6172 10.7292 13.7865 11.1133 14.0273C11.4974 14.2617 11.8034 14.6068 12.0312 15.0625C12.2656 15.5117 12.3828 16.1107 12.3828 16.8594C12.3828 17.7253 12.1712 18.4674 11.748 19.0859C11.3249 19.7044 10.7194 20.1797 9.93164 20.5117C9.15039 20.8372 8.2194 21 7.13867 21H1.79688V6.72266ZM4.82422 12.377H6.58203C7.46094 12.377 8.06966 12.2402 8.4082 11.9668C8.74674 11.6868 8.91602 11.2767 8.91602 10.7363C8.91602 10.1895 8.71419 9.79883 8.31055 9.56445C7.91341 9.32357 7.2819 9.20312 6.41602 9.20312H4.82422V12.377ZM4.82422 14.7793V18.5H6.79688C7.70833 18.5 8.3431 18.3242 8.70117 17.9727C9.05924 17.6211 9.23828 17.1491 9.23828 16.5566C9.23828 16.2051 9.16016 15.8958 9.00391 15.6289C8.84766 15.362 8.58398 15.1536 8.21289 15.0039C7.84831 14.8542 7.34375 14.7793 6.69922 14.7793H4.82422ZM19.502 9.87695C20.5111 9.87695 21.3802 10.0723 22.1094 10.4629C22.8385 10.847 23.4017 11.4069 23.7988 12.1426C24.196 12.8783 24.3945 13.7767 24.3945 14.8379V16.2832H17.3535C17.3861 17.123 17.6367 17.7839 18.1055 18.2656C18.5807 18.7409 19.2383 18.9785 20.0781 18.9785C20.7747 18.9785 21.4128 18.9069 21.9922 18.7637C22.5716 18.6204 23.1673 18.4056 23.7793 18.1191V20.4238C23.2389 20.6908 22.6725 20.8861 22.0801 21.0098C21.4941 21.1335 20.7812 21.1953 19.9414 21.1953C18.8477 21.1953 17.8776 20.9935 17.0312 20.5898C16.1914 20.1862 15.5306 19.571 15.0488 18.7441C14.5736 17.9173 14.3359 16.8757 14.3359 15.6191C14.3359 14.3431 14.5508 13.2819 14.9805 12.4355C15.4167 11.5827 16.0221 10.9447 16.7969 10.5215C17.5716 10.0918 18.4733 9.87695 19.502 9.87695ZM19.5215 11.9961C18.9421 11.9961 18.4603 12.1816 18.0762 12.5527C17.6986 12.9238 17.4805 13.5065 17.4219 14.3008H21.6016C21.5951 13.8581 21.5137 13.4642 21.3574 13.1191C21.2077 12.7741 20.9798 12.5007 20.6738 12.2988C20.3743 12.097 19.9902 11.9961 19.5215 11.9961ZM39.6387 9.87695C40.8757 9.87695 41.8099 10.196 42.4414 10.834C43.0794 11.4655 43.3984 12.4811 43.3984 13.8809V21H40.4102V14.623C40.4102 13.8418 40.2767 13.2526 40.0098 12.8555C39.7428 12.4583 39.3294 12.2598 38.7695 12.2598C37.9818 12.2598 37.4219 12.543 37.0898 13.1094C36.7578 13.6693 36.5918 14.4733 36.5918 15.5215V21H33.6133V14.623C33.6133 14.1022 33.5547 13.666 33.4375 13.3145C33.3203 12.9629 33.1413 12.6992 32.9004 12.5234C32.6595 12.3477 32.3503 12.2598 31.9727 12.2598C31.4193 12.2598 30.9831 12.3997 30.6641 12.6797C30.3516 12.9531 30.127 13.36 29.9902 13.9004C29.86 14.4342 29.7949 15.0885 29.7949 15.8633V21H26.8164V10.082H29.0918L29.4922 11.4785H29.6582C29.8796 11.1009 30.1562 10.7949 30.4883 10.5605C30.8268 10.3262 31.1979 10.1536 31.6016 10.043C32.0052 9.93229 32.4154 9.87695 32.832 9.87695C33.6328 9.87695 34.3099 10.0072 34.8633 10.2676C35.4232 10.528 35.8529 10.9316 36.1523 11.4785H36.416C36.7415 10.9186 37.2005 10.5117 37.793 10.2578C38.3919 10.0039 39.0072 9.87695 39.6387 9.87695ZM54.2578 21L50.0977 10.082H53.2129L55.3223 16.3027C55.4395 16.6673 55.5306 17.0514 55.5957 17.4551C55.6673 17.8587 55.7161 18.2201 55.7422 18.5391H55.8203C55.8398 18.194 55.8854 17.8262 55.957 17.4355C56.0352 17.0449 56.1361 16.6673 56.2598 16.3027L58.3594 10.082H61.4746L57.3145 21H54.2578ZM66.0254 10.082V21H63.0469V10.082H66.0254ZM64.541 5.80469C64.9837 5.80469 65.3646 5.90885 65.6836 6.11719C66.0026 6.31901 66.1621 6.69987 66.1621 7.25977C66.1621 7.81315 66.0026 8.19727 65.6836 8.41211C65.3646 8.62044 64.9837 8.72461 64.541 8.72461C64.0918 8.72461 63.7077 8.62044 63.3887 8.41211C63.0762 8.19727 62.9199 7.81315 62.9199 7.25977C62.9199 6.69987 63.0762 6.31901 63.3887 6.11719C63.7077 5.90885 64.0918 5.80469 64.541 5.80469ZM75.3613 9.87695C76.5267 9.87695 77.4642 10.196 78.1738 10.834C78.8835 11.4655 79.2383 12.4811 79.2383 13.8809V21H76.2598V14.623C76.2598 13.8418 76.1165 13.2526 75.8301 12.8555C75.5501 12.4583 75.1074 12.2598 74.502 12.2598C73.5905 12.2598 72.9688 12.569 72.6367 13.1875C72.3047 13.806 72.1387 14.6979 72.1387 15.8633V21H69.1602V10.082H71.4355L71.8359 11.4785H72.002C72.2363 11.1009 72.526 10.7949 72.8711 10.5605C73.2227 10.3262 73.61 10.1536 74.0332 10.043C74.4629 9.93229 74.9056 9.87695 75.3613 9.87695ZM85.7617 21.1953C84.5443 21.1953 83.5514 20.7201 82.7832 19.7695C82.0215 18.8125 81.6406 17.4095 81.6406 15.5605C81.6406 13.6921 82.028 12.2793 82.8027 11.3223C83.5775 10.3587 84.5898 9.87695 85.8398 9.87695C86.3607 9.87695 86.8197 9.94857 87.2168 10.0918C87.6139 10.235 87.9557 10.4271 88.2422 10.668C88.5352 10.9089 88.7826 11.179 88.9844 11.4785H89.082C89.043 11.2702 88.9941 10.9642 88.9355 10.5605C88.8835 10.1504 88.8574 9.73047 88.8574 9.30078V5.80469H91.8457V21H89.5605L88.9844 19.584H88.8574C88.6686 19.8835 88.431 20.1569 88.1445 20.4043C87.8646 20.6452 87.5293 20.8372 87.1387 20.9805C86.748 21.1237 86.2891 21.1953 85.7617 21.1953ZM86.8066 18.8223C87.6204 18.8223 88.1934 18.5814 88.5254 18.0996C88.8639 17.6113 89.043 16.8789 89.0625 15.9023V15.5801C89.0625 14.5189 88.8997 13.7083 88.5742 13.1484C88.2487 12.582 87.6432 12.2988 86.7578 12.2988C86.1003 12.2988 85.5859 12.582 85.2148 13.1484C84.8438 13.7148 84.6582 14.5319 84.6582 15.5996C84.6582 16.6673 84.8438 17.4714 85.2148 18.0117C85.5924 18.5521 86.123 18.8223 86.8066 18.8223ZM104.883 15.5215C104.883 16.4329 104.759 17.2402 104.512 17.9434C104.271 18.6465 103.916 19.2422 103.447 19.7305C102.985 20.2122 102.425 20.5768 101.768 20.8242C101.117 21.0716 100.381 21.1953 99.5605 21.1953C98.7923 21.1953 98.0859 21.0716 97.4414 20.8242C96.8034 20.5768 96.2467 20.2122 95.7715 19.7305C95.3027 19.2422 94.9382 18.6465 94.6777 17.9434C94.4238 17.2402 94.2969 16.4329 94.2969 15.5215C94.2969 14.3105 94.5117 13.2852 94.9414 12.4453C95.3711 11.6055 95.9831 10.9674 96.7773 10.5312C97.5716 10.0951 98.5189 9.87695 99.6191 9.87695C100.641 9.87695 101.546 10.0951 102.334 10.5312C103.128 10.9674 103.75 11.6055 104.199 12.4453C104.655 13.2852 104.883 14.3105 104.883 15.5215ZM97.334 15.5215C97.334 16.2376 97.4121 16.8398 97.5684 17.3281C97.7246 17.8164 97.9688 18.1842 98.3008 18.4316C98.6328 18.679 99.0658 18.8027 99.5996 18.8027C100.127 18.8027 100.553 18.679 100.879 18.4316C101.211 18.1842 101.452 17.8164 101.602 17.3281C101.758 16.8398 101.836 16.2376 101.836 15.5215C101.836 14.7988 101.758 14.1999 101.602 13.7246C101.452 13.2428 101.211 12.8815 100.879 12.6406C100.547 12.3997 100.114 12.2793 99.5801 12.2793C98.7923 12.2793 98.2194 12.5495 97.8613 13.0898C97.5098 13.6302 97.334 14.4408 97.334 15.5215ZM117.012 9.85742C118.477 9.85742 119.6 10.1764 120.381 10.8145C121.162 11.4525 121.553 12.4225 121.553 13.7246V21H119.473L118.896 19.5156H118.818C118.506 19.9062 118.187 20.2253 117.861 20.4727C117.536 20.7201 117.161 20.9023 116.738 21.0195C116.315 21.1367 115.801 21.1953 115.195 21.1953C114.551 21.1953 113.971 21.0716 113.457 20.8242C112.949 20.5768 112.549 20.1992 112.256 19.6914C111.963 19.1771 111.816 18.526 111.816 17.7383C111.816 16.5794 112.223 15.7266 113.037 15.1797C113.851 14.6263 115.072 14.3203 116.699 14.2617L118.594 14.2031V13.7246C118.594 13.1517 118.444 12.7318 118.145 12.4648C117.845 12.1979 117.428 12.0645 116.895 12.0645C116.367 12.0645 115.85 12.1393 115.342 12.2891C114.834 12.4388 114.326 12.6276 113.818 12.8555L112.832 10.8438C113.411 10.5378 114.059 10.2969 114.775 10.1211C115.498 9.94531 116.243 9.85742 117.012 9.85742ZM118.594 15.9414L117.441 15.9805C116.478 16.0065 115.807 16.179 115.43 16.498C115.059 16.8171 114.873 17.237 114.873 17.7578C114.873 18.2135 115.007 18.5391 115.273 18.7344C115.54 18.9232 115.889 19.0176 116.318 19.0176C116.956 19.0176 117.493 18.8288 117.93 18.4512C118.372 18.0736 118.594 17.5365 118.594 16.8398V15.9414Z" fill="white"/>
<path d="M40.6055 42.0176L32.9766 72H25.7373L21.6768 56.25C21.5947 55.9492 21.4854 55.4912 21.3486 54.876C21.2119 54.2607 21.0684 53.5908 20.918 52.8662C20.7676 52.1279 20.6309 51.4375 20.5078 50.7949C20.3984 50.1387 20.3232 49.6191 20.2822 49.2363C20.2412 49.6191 20.1592 50.1318 20.0361 50.7744C19.9268 51.417 19.7969 52.1006 19.6465 52.8252C19.5098 53.5498 19.373 54.2266 19.2363 54.8555C19.0996 55.4844 18.9902 55.9629 18.9082 56.291L14.8682 72H7.64941L0 42.0176H6.25488L10.0898 58.3828C10.1992 58.875 10.3223 59.4629 10.459 60.1465C10.6094 60.8301 10.7529 61.5479 10.8896 62.2998C11.04 63.0381 11.1699 63.7559 11.2793 64.4531C11.4023 65.1367 11.4912 65.7314 11.5459 66.2373C11.6143 65.7178 11.7031 65.1162 11.8125 64.4326C11.9219 63.7354 12.0381 63.0312 12.1611 62.3203C12.2979 61.5957 12.4346 60.9258 12.5713 60.3105C12.708 59.6953 12.8311 59.1963 12.9404 58.8135L17.3086 42.0176H23.3174L27.6855 58.8135C27.7812 59.1826 27.8906 59.6816 28.0137 60.3105C28.1504 60.9258 28.2871 61.5957 28.4238 62.3203C28.5605 63.0449 28.6836 63.7559 28.793 64.4531C28.916 65.1367 29.0049 65.7314 29.0596 66.2373C29.1553 65.5537 29.2852 64.7266 29.4492 63.7559C29.627 62.7715 29.8115 61.7939 30.0029 60.8232C30.208 59.8525 30.3857 59.0391 30.5361 58.3828L34.3506 42.0176H40.6055ZM53.3408 48.6416C55.46 48.6416 57.2852 49.0518 58.8164 49.8721C60.3477 50.6787 61.5303 51.8545 62.3643 53.3994C63.1982 54.9443 63.6152 56.8311 63.6152 59.0596V62.0947H48.8291C48.8975 63.8584 49.4238 65.2461 50.4082 66.2578C51.4062 67.2559 52.7871 67.7549 54.5508 67.7549C56.0137 67.7549 57.3535 67.6045 58.5703 67.3037C59.7871 67.0029 61.0381 66.5518 62.3232 65.9502V70.79C61.1885 71.3506 59.999 71.7607 58.7549 72.0205C57.5244 72.2803 56.0273 72.4102 54.2637 72.4102C51.9668 72.4102 49.9297 71.9863 48.1523 71.1387C46.3887 70.291 45.001 68.999 43.9893 67.2627C42.9912 65.5264 42.4922 63.3389 42.4922 60.7002C42.4922 58.0205 42.9434 55.792 43.8457 54.0146C44.7617 52.2236 46.0332 50.8838 47.6602 49.9951C49.2871 49.0928 51.1807 48.6416 53.3408 48.6416ZM53.3818 53.0918C52.165 53.0918 51.1533 53.4814 50.3467 54.2607C49.5537 55.04 49.0957 56.2637 48.9727 57.9316H57.75C57.7363 57.002 57.5654 56.1748 57.2373 55.4502C56.9229 54.7256 56.4443 54.1514 55.8018 53.7275C55.1729 53.3037 54.3662 53.0918 53.3818 53.0918ZM81.8877 72L74.6689 48.4775H74.4844C74.5117 49.0381 74.5527 49.8857 74.6074 51.0205C74.6758 52.1416 74.7373 53.3379 74.792 54.6094C74.8467 55.8809 74.874 57.0293 74.874 58.0547V72H69.1934V42.0176H77.8477L84.9434 64.9453H85.0664L92.5928 42.0176H101.247V72H95.3203V57.8086C95.3203 56.8652 95.334 55.7783 95.3613 54.5479C95.4023 53.3174 95.4502 52.1484 95.5049 51.041C95.5596 49.9199 95.6006 49.0791 95.6279 48.5186H95.4434L87.7119 72H81.8877ZM129.158 60.4951C129.158 62.4092 128.898 64.1045 128.379 65.5811C127.873 67.0576 127.128 68.3086 126.144 69.334C125.173 70.3457 123.997 71.1113 122.616 71.6309C121.249 72.1504 119.704 72.4102 117.981 72.4102C116.368 72.4102 114.885 72.1504 113.531 71.6309C112.191 71.1113 111.022 70.3457 110.024 69.334C109.04 68.3086 108.274 67.0576 107.728 65.5811C107.194 64.1045 106.928 62.4092 106.928 60.4951C106.928 57.9521 107.379 55.7988 108.281 54.0352C109.184 52.2715 110.469 50.9316 112.137 50.0156C113.805 49.0996 115.794 48.6416 118.104 48.6416C120.251 48.6416 122.151 49.0996 123.806 50.0156C125.474 50.9316 126.779 52.2715 127.723 54.0352C128.68 55.7988 129.158 57.9521 129.158 60.4951ZM113.306 60.4951C113.306 61.999 113.47 63.2637 113.798 64.2891C114.126 65.3145 114.639 66.0869 115.336 66.6064C116.033 67.126 116.942 67.3857 118.063 67.3857C119.171 67.3857 120.066 67.126 120.75 66.6064C121.447 66.0869 121.953 65.3145 122.268 64.2891C122.596 63.2637 122.76 61.999 122.76 60.4951C122.76 58.9775 122.596 57.7197 122.268 56.7217C121.953 55.71 121.447 54.9512 120.75 54.4453C120.053 53.9395 119.144 53.6865 118.022 53.6865C116.368 53.6865 115.165 54.2539 114.413 55.3887C113.675 56.5234 113.306 58.2256 113.306 60.4951ZM139.781 72L131.045 49.0723H137.587L142.017 62.1357C142.263 62.9014 142.454 63.708 142.591 64.5557C142.741 65.4033 142.844 66.1621 142.898 66.832H143.062C143.104 66.1074 143.199 65.335 143.35 64.5146C143.514 63.6943 143.726 62.9014 143.985 62.1357L148.395 49.0723H154.937L146.2 72H139.781ZM164.493 49.0723V72H158.238V49.0723H164.493ZM161.376 40.0898C162.306 40.0898 163.105 40.3086 163.775 40.7461C164.445 41.1699 164.78 41.9697 164.78 43.1455C164.78 44.3076 164.445 45.1143 163.775 45.5654C163.105 46.0029 162.306 46.2217 161.376 46.2217C160.433 46.2217 159.626 46.0029 158.956 45.5654C158.3 45.1143 157.972 44.3076 157.972 43.1455C157.972 41.9697 158.3 41.1699 158.956 40.7461C159.626 40.3086 160.433 40.0898 161.376 40.0898ZM180.53 48.6416C182.649 48.6416 184.475 49.0518 186.006 49.8721C187.537 50.6787 188.72 51.8545 189.554 53.3994C190.388 54.9443 190.805 56.8311 190.805 59.0596V62.0947H176.019C176.087 63.8584 176.613 65.2461 177.598 66.2578C178.596 67.2559 179.977 67.7549 181.74 67.7549C183.203 67.7549 184.543 67.6045 185.76 67.3037C186.977 67.0029 188.228 66.5518 189.513 65.9502V70.79C188.378 71.3506 187.188 71.7607 185.944 72.0205C184.714 72.2803 183.217 72.4102 181.453 72.4102C179.156 72.4102 177.119 71.9863 175.342 71.1387C173.578 70.291 172.19 68.999 171.179 67.2627C170.181 65.5264 169.682 63.3389 169.682 60.7002C169.682 58.0205 170.133 55.792 171.035 54.0146C171.951 52.2236 173.223 50.8838 174.85 49.9951C176.477 49.0928 178.37 48.6416 180.53 48.6416ZM180.571 53.0918C179.354 53.0918 178.343 53.4814 177.536 54.2607C176.743 55.04 176.285 56.2637 176.162 57.9316H184.939C184.926 57.002 184.755 56.1748 184.427 55.4502C184.112 54.7256 183.634 54.1514 182.991 53.7275C182.362 53.3037 181.556 53.0918 180.571 53.0918ZM211.887 65.1914C211.887 66.75 211.518 68.0693 210.779 69.1494C210.055 70.2158 208.968 71.0293 207.519 71.5898C206.069 72.1367 204.265 72.4102 202.104 72.4102C200.505 72.4102 199.131 72.3076 197.982 72.1025C196.848 71.8975 195.699 71.5557 194.537 71.0771V65.9092C195.781 66.4697 197.114 66.9346 198.536 67.3037C199.972 67.6592 201.229 67.8369 202.31 67.8369C203.526 67.8369 204.395 67.6592 204.914 67.3037C205.447 66.9346 205.714 66.4561 205.714 65.8682C205.714 65.4854 205.604 65.1436 205.386 64.8428C205.181 64.5283 204.729 64.1797 204.032 63.7969C203.335 63.4004 202.241 62.8877 200.751 62.2588C199.315 61.6572 198.133 61.0488 197.203 60.4336C196.287 59.8184 195.604 59.0938 195.152 58.2598C194.715 57.4121 194.496 56.3389 194.496 55.04C194.496 52.9209 195.316 51.3281 196.957 50.2617C198.611 49.1816 200.819 48.6416 203.581 48.6416C205.003 48.6416 206.356 48.7852 207.642 49.0723C208.94 49.3594 210.273 49.8174 211.641 50.4463L209.754 54.958C208.619 54.4658 207.546 54.0625 206.534 53.748C205.536 53.4336 204.518 53.2764 203.479 53.2764C202.562 53.2764 201.872 53.3994 201.407 53.6455C200.942 53.8916 200.71 54.2676 200.71 54.7734C200.71 55.1426 200.826 55.4707 201.059 55.7578C201.305 56.0449 201.77 56.3662 202.453 56.7217C203.15 57.0635 204.169 57.5078 205.509 58.0547C206.808 58.5879 207.936 59.1484 208.893 59.7363C209.85 60.3105 210.588 61.0283 211.107 61.8896C211.627 62.7373 211.887 63.8379 211.887 65.1914Z" fill="white"/>
</svg>
