<svg width="238" height="374" viewBox="0 0 238 374" fill="none" xmlns="http://www.w3.org/2000/svg">
<path d="M211.448 251.519L211.443 251.631L217.031 310.717H176.257L170.972 274.428L168.646 309.786L126.774 309.321L131.222 262.899L135.004 241.382V241.377L135.572 238.139H210.336L210.434 239.312L211.448 251.519Z" fill="#2F2E41"/>
<path d="M103.694 285.772C108.012 286.558 112.515 281.695 113.751 274.909C114.293 271.939 114.118 269.093 113.388 266.765L114.051 262.853L125.162 210.23C125.162 210.23 145.623 169.3 145.623 162.195C145.622 155.089 139.704 151.604 139.704 151.604L131.695 151.679L106.58 213.02L102.057 258.348L101.325 264.567C99.8219 266.488 98.6546 269.09 98.1136 272.06C96.8772 278.846 99.3757 284.985 103.694 285.772Z" fill="#FFB6B6"/>
<path d="M185.162 126.249L177.718 109.035L153.525 113.222L151.897 133.474L185.162 126.249Z" fill="#FFB6B6"/>
<path opacity="0.1" d="M185.162 126.249L177.718 109.035L153.525 113.222L151.897 133.474L185.162 126.249Z" fill="black"/>
<path d="M237.734 162.072C237.734 162.072 220.52 129.971 217.264 126.714C215.814 125.264 213.535 125.244 211.451 125.667L187.488 117.409L179.366 112.845L178.831 121.528L152.165 126.314C152.313 121.019 153.06 119.005 153.06 119.005L143.29 130.436L124.215 139.741L124.226 139.824C122.826 140.313 121.499 141.149 120.493 142.532C116.771 147.65 106.536 209.992 106.536 209.992L128.402 214.644L131.378 195.97L133.52 212.784L135.148 244.187C135.148 244.187 164.924 269.776 179.346 260.471C193.769 251.166 211.448 251.631 211.448 251.631L211.889 237.075C212.203 236.573 212.378 236.278 212.378 236.278L211.913 184.644V170.904C215.458 175.842 219.735 180.089 224.707 182.078C240.991 188.591 237.734 162.072 237.734 162.072V162.072Z" fill="#E6E6E6"/>
<path d="M163.093 116.251C175.385 116.251 185.349 106.286 185.349 93.9942C185.349 81.7023 175.385 71.7378 163.093 71.7378C150.801 71.7378 140.836 81.7023 140.836 93.9942C140.836 106.286 150.801 116.251 163.093 116.251Z" fill="#FFB6B6"/>
<path d="M179.06 100.284C179.06 100.284 180.995 93.5105 185.349 93.9943C189.704 94.4782 190.672 90.6075 189.704 88.6721C188.736 86.7368 186.801 77.0601 186.801 77.0601C186.801 77.0601 187.769 70.2864 181.963 69.3187C176.157 68.3511 174.221 67.3834 173.254 65.448C172.286 63.5127 157.771 61.5774 152.932 64.4804C148.094 67.3834 144.223 72.9532 140.837 74.5228C137.45 76.0924 134.547 78.9954 136.482 83.8338C138.417 88.6721 141.224 98.1349 141.224 98.1349C141.224 98.1349 146.159 96.4135 147.126 99.3165C148.094 102.22 144.223 98.3488 149.062 90.6075C153.9 82.8661 153.9 75.1247 161.642 78.0278C169.383 80.9308 178.092 79.9631 177.124 85.7691C176.157 91.5751 179.06 100.284 179.06 100.284V100.284Z" fill="#2F2E41"/>
<path d="M177.699 276.724H8.66894C3.88879 276.724 0 272.835 0 268.055V178.267C0 173.487 3.88879 169.598 8.66894 169.598H177.699C182.479 169.598 186.368 173.487 186.368 178.267V268.055C186.368 272.835 182.479 276.724 177.699 276.724Z" fill="white"/>
<path d="M177.699 276.724H8.66894C3.88879 276.724 0 272.835 0 268.055V178.267C0 173.487 3.88879 169.598 8.66894 169.598H177.699C182.479 169.598 186.368 173.487 186.368 178.267V268.055C186.368 272.835 182.479 276.724 177.699 276.724ZM8.66894 171.046C4.68719 171.046 1.44765 174.285 1.44765 178.267V268.055C1.44765 272.037 4.68719 275.277 8.66894 275.277H177.699C181.68 275.277 184.92 272.037 184.92 268.055V178.267C184.92 174.285 181.68 171.046 177.699 171.046H8.66894Z" fill="#3F3D56"/>
<path d="M164.653 180.456C165.852 180.456 166.824 179.483 166.824 178.284C166.824 177.085 165.852 176.113 164.653 176.113C163.454 176.113 162.481 177.085 162.481 178.284C162.481 179.483 163.454 180.456 164.653 180.456Z" fill="#3F3D56"/>
<path d="M170.443 180.456C171.643 180.456 172.615 179.483 172.615 178.284C172.615 177.085 171.643 176.113 170.443 176.113C169.244 176.113 168.272 177.085 168.272 178.284C168.272 179.483 169.244 180.456 170.443 180.456Z" fill="#3F3D56"/>
<path d="M176.234 180.456C177.433 180.456 178.405 179.483 178.405 178.284C178.405 177.085 177.433 176.113 176.234 176.113C175.035 176.113 174.062 177.085 174.062 178.284C174.062 179.483 175.035 180.456 176.234 180.456Z" fill="#3F3D56"/>
<path d="M12.305 213.39C11.7063 213.39 11.2192 213.877 11.2192 214.475C11.2192 214.767 11.332 215.037 11.5366 215.237C11.743 215.448 12.0134 215.561 12.305 215.561H174.786C175.385 215.561 175.872 215.074 175.872 214.475C175.872 214.183 175.759 213.913 175.555 213.714C175.348 213.503 175.078 213.39 174.786 213.39H12.305Z" fill="#E6E6E6"/>
<path d="M154.519 213.028V215.923H12.3051C11.907 215.923 11.5451 215.764 11.2845 215.496C11.0166 215.235 10.8574 214.874 10.8574 214.475C10.8574 213.679 11.5089 213.028 12.3051 213.028H154.519Z" fill="#009EDD"/>
<path d="M172.977 207.599H158.5C156.904 207.599 155.605 206.3 155.605 204.704C155.605 203.107 156.904 201.808 158.5 201.808H172.977C174.573 201.808 175.872 203.107 175.872 204.704C175.872 206.3 174.573 207.599 172.977 207.599Z" fill="#E6E6E6"/>
<path d="M78.1553 192.399H13.3904C11.794 192.399 10.4951 191.1 10.4951 189.503C10.4951 187.906 11.794 186.608 13.3904 186.608H78.1553C79.7517 186.608 81.0506 187.906 81.0506 189.503C81.0506 191.1 79.7517 192.399 78.1553 192.399Z" fill="#E6E6E6"/>
<path d="M12.305 245.962C11.7063 245.962 11.2192 246.449 11.2192 247.047C11.2192 247.339 11.332 247.609 11.5366 247.809C11.743 248.02 12.0134 248.133 12.305 248.133H174.786C175.385 248.133 175.872 247.646 175.872 247.047C175.872 246.755 175.759 246.485 175.555 246.286C175.348 246.075 175.078 245.962 174.786 245.962H12.305Z" fill="#E6E6E6"/>
<path d="M98.7847 245.6V248.495H12.3051C11.907 248.495 11.5451 248.336 11.2845 248.068C11.0166 247.808 10.8574 247.446 10.8574 247.048C10.8574 246.251 11.5089 245.6 12.3051 245.6H98.7847Z" fill="#009EDD"/>
<path d="M172.977 240.171H158.5C156.904 240.171 155.605 238.873 155.605 237.276C155.605 235.679 156.904 234.381 158.5 234.381H172.977C174.573 234.381 175.872 235.679 175.872 237.276C175.872 238.873 174.573 240.171 172.977 240.171Z" fill="#E6E6E6"/>
<path d="M198.32 117.964C210.84 117.964 220.989 108.028 220.989 95.772C220.989 83.5157 210.84 73.5801 198.32 73.5801C185.8 73.5801 175.65 83.5157 175.65 95.772C175.65 108.028 185.8 117.964 198.32 117.964Z" fill="#009EDD"/>
<path d="M206.014 84.5781C202.996 90.0736 199.978 95.5691 196.96 101.065C195.036 97.6661 193.123 94.2615 191.195 90.8656C190.529 89.6928 188.718 90.7476 189.386 91.9234C191.621 95.86 193.833 99.8097 196.068 103.746C196.45 104.419 197.5 104.435 197.878 103.746C201.193 97.7095 204.508 91.6727 207.824 85.6359C208.473 84.453 206.664 83.3943 206.014 84.5781Z" fill="white"/>
<path d="M229.615 154.267L207.028 143.463C207.028 143.463 206.121 136.231 201.886 133.652C201.165 131.934 200.337 130.046 199.585 128.551C197.724 124.853 200.515 117.874 198.189 117.874C195.863 117.874 192.424 125.214 192.606 127.179C192.746 128.688 193.993 131.322 194.25 133.628C191.414 134.698 189.125 136.531 187.621 137.991C186.319 139.255 185.835 141.14 186.344 142.881C187.818 147.928 191.504 158.35 196.793 158.35C203.772 158.35 205.633 156.955 205.633 156.955C205.633 156.955 220.055 175.099 230.756 176.495C241.456 177.89 229.615 154.267 229.615 154.267V154.267Z" fill="#FFB6B6"/>
</svg>
